<svg id="Layer_1" xmlns="http://www.w3.org/2000/svg" viewBox="0 0 530 117.3"><style>.st0{fill:#f15a2b}</style><title>Pindrop_logo_orange</title><path class="st0" d="M61.8,26.6c19.6,0,38.5,7.2,53,20.4c-2.2-10.6-7.4-20.4-15-28.1c-35.5-15-76.7-2.2-97.4,30.3	c-0.3,1.7-0.5,3.3-0.6,5C16.8,36.7,38.7,26.6,61.8,26.6"/><path class="st0" d="M28.5,61.6c28.2,0,54,15.8,66.9,40.9c11.2-9.3,18.4-22.5,20.1-36.9C89,33.8,41.7,29.5,9.9,56	c-2.9,2.4-5.5,5-8,7.7c0.1,0.9,0.2,1.8,0.3,2.6C10.6,63.2,19.5,61.6,28.5,61.6"/><path class="st0" d="M58.7,117.3C29.4,117.3,4.6,95.6,0.5,66.6c-0.1-0.9-0.2-1.8-0.3-2.7C0.1,62.2,0,60.4,0,58.7	c0-1.5,0.1-3,0.2-4.5c0.1-1.7,0.3-3.4,0.6-5.1C6.2,17,36.4-4.5,68.4,0.8c23.9,4,42.8,22.2,47.7,45.9c0.8,3.9,1.2,7.9,1.2,11.9	c0,2.4-0.1,4.8-0.4,7.1C113.3,95.2,88.3,117.3,58.7,117.3 M58.7,3C31.4,2.9,8.2,22.6,3.8,49.5c-0.3,1.6-0.5,3.3-0.6,4.9	C3.1,55.8,3,57.2,3,58.7c0,1.6,0.1,3.3,0.2,5c0.1,0.9,0.2,1.7,0.3,2.5c4.2,30.4,32.2,51.7,62.7,47.6c25-3.4,44.6-23.3,47.7-48.3	c0.3-2.3,0.4-4.5,0.4-6.8c0-14.4-5.6-28.3-15.6-38.7C88.2,9.1,73.7,3,58.7,3"/><path class="st0" d="M326.4,10.6v74h-7.4l0.4-6.7l-0.2-0.1c-2.3,5-7.8,7.5-16.3,7.5c-7.8,0-13.1-1.9-15.9-5.8	c-2.8-3.9-4.3-11.1-4.3-21.7c0-9.7,1.4-16.5,4.3-20.2s8-5.7,15.4-5.7c9.2,0,14.7,2.4,16.5,7.3l0.2-0.1V10.6H326.4z M304,38.3	c-5.5,0-9.1,1.3-10.9,3.9s-2.7,7.8-2.7,15.7c0,8.7,0.9,14.4,2.7,17.1c1.8,2.7,5.5,4.1,11.1,4.1c6.1,0,10.1-1.4,11.9-4.1	s2.8-8.7,2.8-17.8c0-7.4-1-12.4-3-15C313.8,39.5,309.9,38.3,304,38.3"/><path class="st0" d="M340.2,32.8h7.4l-0.7,6l0.1,0.2c2.9-4.9,7.8-7.3,14.5-7.3c9.3,0,14,4.9,14,14.7v3.6h-7.3l0.1-1.3	c0.1-1.4,0.2-2.3,0.2-2.8c0-5.3-2.8-8-8.5-8c-8.3,0-12.4,5.2-12.4,15.7v31h-7.4L340.2,32.8z"/><path class="st0" d="M403.7,32c9.4,0,15.5,1.7,18.2,5c2.8,3.3,4.2,10.6,4.2,21.7c0,11.1-1.4,18.3-4.2,21.7c-2.8,3.3-8.9,5-18.2,5	c-9.3,0-15.4-1.7-18.2-5s-4.2-10.6-4.2-21.7c0-11.1,1.4-18.4,4.2-21.7S394.3,32,403.7,32 M403.7,38.3c-6.6,0-10.7,1.1-12.2,3.3	c-1.6,2.2-2.4,7.9-2.4,17.1c0,9.2,0.8,14.9,2.4,17.1c1.6,2.2,5.7,3.3,12.2,3.2c6.6,0,10.7-1.1,12.3-3.3c1.6-2.2,2.4-7.9,2.4-17.1	c0-9.2-0.8-14.9-2.4-17.1C414.4,39.4,410.3,38.3,403.7,38.3"/><path class="st0" d="M437.7,32.8h7.4l-0.4,6.5l0.2,0.2c2.6-5,8.1-7.5,16.7-7.5c7.5,0,12.7,2,15.5,5.8c2.8,3.9,4.2,11.1,4.2,21.6	c0,9.7-1.4,16.5-4.3,20.2s-8,5.7-15.3,5.7c-8.3,0-13.9-2.3-16.6-6.9h-0.2v28.3h-7.4L437.7,32.8L437.7,32.8z M459.5,38.3	c-5.9,0-9.8,1.3-11.6,3.9c-1.8,2.6-2.7,8.2-2.7,16.9c0,8,1,13.3,2.9,16c1.9,2.7,5.9,4,11.7,4c5.6,0,9.3-1.3,11.1-3.8	s2.7-7.8,2.7-15.9c0-8.8-0.9-14.5-2.6-17.1S465.5,38.3,459.5,38.3"/><path class="st0" d="M152.1,32.8h7.4l-0.4,6.5l0.2,0.2c2.6-5,8.1-7.5,16.6-7.5c7.5,0,12.7,2,15.6,5.8c2.8,3.9,4.2,11.1,4.2,21.6	c0,9.7-1.4,16.5-4.3,20.2s-8,5.7-15.3,5.7c-8.3,0-13.9-2.3-16.6-6.9h-0.2v28.3h-7.4L152.1,32.8z M173.9,38.3	c-5.9,0-9.8,1.3-11.6,3.9c-1.8,2.6-2.7,8.2-2.7,16.9c0,8,1,13.3,2.9,16c1.9,2.7,5.9,4,11.7,4c5.6,0,9.3-1.3,11.1-3.8	s2.7-7.9,2.7-15.9c0-8.8-0.9-14.5-2.6-17.1C183.7,39.6,179.8,38.3,173.9,38.3"/><path class="st0" d="M214.9,19.1h-7.4v-8.5h7.4V19.1z M214.9,84.6h-7.4V32.8h7.4V84.6z"/><path class="st0" d="M228,32.8h7.2l-0.2,7l0.2,0.2c2.3-5.3,7.9-8,16.9-8c7.3,0,12.2,1.3,14.7,3.9s3.8,7.6,3.9,15v33.7h-7.4v-35	c0-4.4-0.8-7.4-2.5-9c-1.7-1.5-4.9-2.3-9.6-2.3c-10.4,0-15.6,5-15.6,15.1v31.3H228V32.8z"/><path class="st0" d="M486.2,21.1L486.2,21.1c0-4.4,3.5-8,8-8s7.9,3.6,7.9,7.9v0c0,4.3-3.5,8-8,8S486.2,25.4,486.2,21.1z M501.3,21 L501.3,21c0-4-3.1-7.2-7.1-7.2c-4.1,0-7.2,3.2-7.2,7.2v0c0,3.9,3.1,7.1,7.1,7.1C498.2,28.2,501.3,25,501.3,21z M490.9,16.6h3.7 c1.1,0,2,0.3,2.5,0.9c0.4,0.4,0.7,1,0.7,1.8v0c0,1.3-0.8,2.2-1.9,2.5l2.2,3.1h-1.9l-2-2.9h-1.7V25h-1.6V16.6z M494.6,20.7 c1,0,1.7-0.5,1.7-1.3v0c0-0.8-0.6-1.3-1.7-1.3h-2.1v2.6H494.6z"/></svg>